<?xml version="1.0" standalone="no"?>
<!DOCTYPE svg PUBLIC "-//W3C//DTD SVG 20010904//EN"
 "http://www.w3.org/TR/2001/REC-SVG-20010904/DTD/svg10.dtd">
<svg version="1.0" xmlns="http://www.w3.org/2000/svg"
 width="364.000000pt" height="282.000000pt" viewBox="0 0 364.000000 282.000000"
 preserveAspectRatio="xMidYMid meet">
<metadata>
Created by potrace 1.16, written by Peter Selinger 2001-2019
</metadata>
<g transform="translate(0.000000,282.000000) scale(0.100000,-0.100000)"
fill="#000000" stroke="none">
<path d="M1905 2554 c-50 -8 -274 -63 -293 -73 -9 -5 -48 -24 -87 -42 -78 -37
-157 -85 -225 -138 -58 -44 -210 -198 -210 -211 0 -7 223 -10 668 -10 447 0
680 -4 707 -11 77 -21 259 -110 285 -139 3 -4 23 -19 44 -35 57 -43 149 -157
191 -236 55 -104 77 -202 78 -349 2 -138 -8 -196 -54 -302 -99 -229 -290 -394
-524 -452 -105 -26 -183 -29 -281 -12 -301 52 -523 231 -614 492 -54 158 -65
394 -24 494 64 152 144 273 242 363 17 17 32 34 32 39 0 4 -290 8 -644 8 -556
0 -645 2 -656 15 -16 20 -68 45 -93 45 -10 0 -37 -10 -58 -22 -45 -25 -64 -69
-56 -130 6 -46 29 -75 76 -95 41 -18 81 -10 111 23 23 24 25 24 207 24 101 0
183 -2 183 -3 0 -2 -13 -48 -30 -103 -16 -54 -33 -120 -36 -146 l-7 -48 127 0
128 0 30 30 c40 40 85 41 127 1 22 -21 31 -38 31 -61 0 -95 -109 -140 -169
-70 -15 18 -38 19 -429 26 l-413 7 -29 28 c-51 52 -140 30 -170 -40 -26 -63
31 -141 103 -141 34 0 82 24 91 45 5 13 40 15 283 13 l278 -3 6 -105 c6 -96
12 -145 25 -192 5 -16 20 -18 140 -18 l135 0 33 35 c19 19 43 35 55 35 38 0
82 -30 97 -66 18 -43 10 -75 -27 -108 -40 -36 -86 -35 -129 4 l-34 30 -144 0
-144 0 -41 35 c-47 41 -67 43 -114 14 -112 -70 -25 -239 98 -189 16 7 34 21
40 32 8 15 19 18 51 16 40 -3 41 -4 91 -98 180 -341 492 -573 872 -646 91 -17
358 -17 450 0 264 51 526 197 686 383 23 26 45 50 48 53 14 10 90 127 129 196
54 97 110 265 128 387 99 644 -291 1230 -927 1393 -86 21 -131 27 -259 29 -85
2 -168 1 -185 -1z"/>
<path d="M1980 1265 l0 -465 100 0 100 0 0 104 c0 58 4 107 9 111 5 3 36 38
69 79 l59 74 26 -52 c15 -28 51 -96 81 -151 31 -55 62 -115 70 -132 l15 -33
110 0 c61 0 111 2 111 6 0 4 -66 126 -198 364 -98 177 -94 167 -75 197 10 16
42 59 73 98 75 94 73 92 127 163 87 115 91 102 -33 102 l-109 0 -85 -109 c-47
-60 -123 -159 -170 -220 l-85 -110 -3 219 -2 220 -95 0 -95 0 0 -465z"/>
</g>
</svg>
